<?xml version="1.0" encoding="UTF-8"?>
<svg width="107px" height="107px" viewBox="0 0 107 107" version="1.1" xmlns="http://www.w3.org/2000/svg" xmlns:xlink="http://www.w3.org/1999/xlink">
    <!-- Generator: Sketch 55.1 (78136) - https://sketchapp.com -->
    <title>Combined Shape</title>
    <desc>Created with Sketch.</desc>
    <g id="Blog" stroke="none" stroke-width="1" fill="none" fill-rule="evenodd">
        <g id="Artboard" transform="translate(-675.000000, -3647.000000)" fill="#FFFFFF" fill-rule="nonzero">
            <g id="Group-11" transform="translate(-143.000000, 3309.000000)">
                <g id="Group-8" transform="translate(129.000000, 0.000000)">
                    <g id="Group-6" transform="translate(0.000000, 253.000000)">
                        <path d="M742.5,184.866667 C768.107603,184.866667 788.866667,164.107603 788.866667,138.5 C788.866667,112.892397 768.107603,92.1333333 742.5,92.1333333 C716.892397,92.1333333 696.133333,112.892397 696.133333,138.5 C696.133333,164.107603 716.892397,184.866667 742.5,184.866667 Z M742.5,192 C712.952766,192 689,168.047234 689,138.5 C689,108.952766 712.952766,85 742.5,85 C772.047234,85 796,108.952766 796,138.5 C796,168.047234 772.047234,192 742.5,192 Z M753.447227,114.935439 C756.366896,116.158712 758.87117,117.906681 760.88921,120.129704 C762.894499,122.337475 764.438772,124.984803 765.478961,127.997088 C766.506116,130.969994 767,134.466485 767,137.999861 C767,141.475554 766.521417,144.546909 765.524298,147.518428 C764.512444,150.529882 762.998773,153.188025 761.026919,155.421864 C759.036364,157.674561 756.533508,159.46496 753.588903,160.742589 C750.654783,162.015502 747.23953,163 743.452234,163 L727.2,163 C725.432689,163 724,161.567311 724,159.8 L724,116.2 C724,114.432689 725.432689,113 727.2,113 L743.452234,113 C747.178325,113 750.546826,113.721041 753.447227,114.935439 Z M755.965569,150.469612 C757.275843,148.914399 758.284489,147.049675 758.964744,144.928788 C759.653774,142.775486 760.527948,135.506123 758.936227,130.697547 C758.235351,128.579811 757.210472,126.726567 755.881551,125.192064 C754.565354,123.672642 752.925811,122.475563 751.008111,121.632566 C749.077468,120.785516 746.803518,120.142857 744.261282,120.142857 L731.166667,120.142857 L731.166667,155.857143 L744.261282,155.857143 C746.839274,155.857143 749.140426,155.005591 751.08796,154.118699 C753.026938,153.23721 754.668017,152.009292 755.965569,150.469612 Z" id="Combined-Shape"></path>
                    </g>
                </g>
            </g>
        </g>
    </g>
</svg>